<svg id="visual" viewBox="0 0 1920 800" width="1920" height="800" xmlns="http://www.w3.org/2000/svg" xmlns:xlink="http://www.w3.org/1999/xlink" version="1.1"><rect x="0" y="0" width="1920" height="800" fill="#001220"></rect><path d="M0 476L45.7 495C91.3 514 182.7 552 274.2 551.2C365.7 550.3 457.3 510.7 548.8 502.7C640.3 494.7 731.7 518.3 823 526.2C914.3 534 1005.7 526 1097 519.3C1188.3 512.7 1279.7 507.3 1371.2 506.3C1462.7 505.3 1554.3 508.7 1645.8 521C1737.3 533.3 1828.7 554.7 1874.3 565.3L1920 576L1920 801L1874.3 801C1828.7 801 1737.3 801 1645.8 801C1554.3 801 1462.7 801 1371.2 801C1279.7 801 1188.3 801 1097 801C1005.7 801 914.3 801 823 801C731.7 801 640.3 801 548.8 801C457.3 801 365.7 801 274.2 801C182.7 801 91.3 801 45.7 801L0 801Z" fill="#fa7268"></path><path d="M0 624L45.7 613.5C91.3 603 182.7 582 274.2 568C365.7 554 457.3 547 548.8 546.2C640.3 545.3 731.7 550.7 823 557.2C914.3 563.7 1005.7 571.3 1097 575.7C1188.3 580 1279.7 581 1371.2 587.5C1462.7 594 1554.3 606 1645.8 611C1737.3 616 1828.7 614 1874.3 613L1920 612L1920 801L1874.3 801C1828.7 801 1737.3 801 1645.8 801C1554.3 801 1462.7 801 1371.2 801C1279.7 801 1188.3 801 1097 801C1005.7 801 914.3 801 823 801C731.7 801 640.3 801 548.8 801C457.3 801 365.7 801 274.2 801C182.7 801 91.3 801 45.7 801L0 801Z" fill="#ef5f67"></path><path d="M0 642L45.7 645.7C91.3 649.3 182.7 656.7 274.2 657.5C365.7 658.3 457.3 652.7 548.8 650.8C640.3 649 731.7 651 823 645.8C914.3 640.7 1005.7 628.3 1097 618.8C1188.3 609.3 1279.7 602.7 1371.2 607.7C1462.7 612.7 1554.3 629.3 1645.8 640.8C1737.3 652.3 1828.7 658.7 1874.3 661.8L1920 665L1920 801L1874.3 801C1828.7 801 1737.3 801 1645.8 801C1554.3 801 1462.7 801 1371.2 801C1279.7 801 1188.3 801 1097 801C1005.7 801 914.3 801 823 801C731.7 801 640.3 801 548.8 801C457.3 801 365.7 801 274.2 801C182.7 801 91.3 801 45.7 801L0 801Z" fill="#e34c67"></path><path d="M0 699L45.7 699.7C91.3 700.3 182.7 701.7 274.2 699.5C365.7 697.3 457.3 691.7 548.8 685.2C640.3 678.7 731.7 671.3 823 664.7C914.3 658 1005.7 652 1097 659.3C1188.3 666.7 1279.7 687.3 1371.2 691.8C1462.7 696.3 1554.3 684.7 1645.8 673.7C1737.3 662.7 1828.7 652.3 1874.3 647.2L1920 642L1920 801L1874.3 801C1828.7 801 1737.3 801 1645.8 801C1554.3 801 1462.7 801 1371.2 801C1279.7 801 1188.3 801 1097 801C1005.7 801 914.3 801 823 801C731.7 801 640.3 801 548.8 801C457.3 801 365.7 801 274.2 801C182.7 801 91.3 801 45.7 801L0 801Z" fill="#d53867"></path><path d="M0 730L45.7 733.2C91.3 736.3 182.7 742.7 274.2 745.2C365.7 747.7 457.3 746.3 548.8 741.7C640.3 737 731.7 729 823 731.7C914.3 734.3 1005.7 747.7 1097 753.7C1188.3 759.7 1279.7 758.3 1371.2 758.2C1462.7 758 1554.3 759 1645.8 754C1737.3 749 1828.7 738 1874.3 732.5L1920 727L1920 801L1874.3 801C1828.7 801 1737.3 801 1645.8 801C1554.3 801 1462.7 801 1371.2 801C1279.7 801 1188.3 801 1097 801C1005.7 801 914.3 801 823 801C731.7 801 640.3 801 548.8 801C457.3 801 365.7 801 274.2 801C182.7 801 91.3 801 45.7 801L0 801Z" fill="#c62368"></path></svg>